:SAMPLES-PER-SECOND 30
:FULLY-SPECIFIED
:DEGREES
231
root  12.7578 30.0937 -0.34252 120.317 -86.9119 -134.592
RightUpLeg  -17.8475 10.0659 -32.4876
RightLeg  56.8766 -2.5353 -4.62308
RightFoot  -5.81611 -2.30522 44.5792
RightToes  -5.28226e-011 1.30204e-014 -6.03759e-014
Spine  34.6958 2.63442 -4.6288
Spine1  -1.17303 -0.445027 5.8247
HEad  -17.9797 11.0641 -0.453683
LeftShoulder1  1.38619 -2.32407 -17.0533
LeftArm  -21.9048 22.3494 -48.4699
LeftForeArm  -41.7074 -40.8958 -11.7373
LeftHand  0.277477 6.60177 26.4079
RightShoulder  1.06861 0.618318 19.566
RightArm  -27.3299 -25.5709 31.4364
RightForeArm  -27.4013 46.3065 13.3066
RightHand  -1.11276 -0.749233 -27.4932
LeftUpLeg  -11.6682 -2.47731 36.6227
LeftLeg  61.4806 -7.04691 -13.199
LeftFoot  -31.8411 -6.32633 -34.9623
LeftToes  -2.75829e-010 5.07641e-011 -5.51782e-011
232
root  12.6316 31.4424 0.0445315 101.995 -83.9166 -116.304
RightUpLeg  -19.5511 12.7212 -28.4555
RightLeg  55.8987 -5.07254 -8.43932
RightFoot  12.4875 -7.70556 37.2793
RightToes  -5.28226e-011 1.30204e-014 -6.03759e-014
Spine  32.3548 1.67254 -14.3927
Spine1  0.637229 -6.1237 16.628
HEad  -16.8331 24.9261 0.10828
LeftShoulder1  2.14185 -5.30406 -17.713
LeftArm  -19.2583 29.1754 -43.2092
LeftForeArm  -50.8447 -30.928 -8.69196
LeftHand  0.14632 6.10143 23.9136
RightShoulder  0.870018 -0.258582 20.5334
RightArm  -26.4589 -22.1153 42.032
RightForeArm  -27.3425 46.2859 13.3798
RightHand  -0.995613 -1.25656 -27.5947
LeftUpLeg  -8.39234 -0.169212 38.9846
LeftLeg  55.7425 -8.82926 -13.167
LeftFoot  -29.0676 -5.45892 -35.1267
LeftToes  -2.75829e-010 5.07641e-011 -5.51782e-011
233
root  12.5935 33.0332 0.316284 124.225 -79.2648 -137.758
RightUpLeg  -27.328 11.5806 -24.5833
RightLeg  55.4413 -4.356 -7.18047
RightFoot  32.7297 -8.31941 20.6968
RightToes  -5.28226e-011 1.30204e-014 -6.03759e-014
Spine  29.5996 -0.363375 -23.9907
Spine1  2.69432 -11.772 24.2005
HEad  -13.2954 41.8139 0.810857
LeftShoulder1  2.61695 -7.00306 -18.343
LeftArm  -10.1955 39.8124 -38.7652
LeftForeArm  -57.3221 -21.3169 -7.75939
LeftHand  -0.051382 5.1514 21.4238
RightShoulder  0.639631 -0.972584 18.9146
RightArm  -16.6644 -16.4243 53.5118
RightForeArm  -28.5177 40.7752 11.2422
RightHand  -1.16591 -0.663564 -28.2523
LeftUpLeg  -2.18414 2.74778 40.6206
LeftLeg  47.4924 -9.23679 -10.2843
LeftFoot  -24.2796 -4.2554 -37.5445
LeftToes  -2.75829e-010 5.07641e-011 -5.51782e-011
234
root  12.5909 34.7112 0.65873 139.227 -73.1274 -151.548
RightUpLeg  -35.6886 7.16696 -19.173
RightLeg  52.4406 -2.87762 -4.37356
RightFoot  41.1914 -6.55014 13.6712
RightToes  -5.28226e-011 1.30204e-014 -6.03759e-014
Spine  27.4206 -2.68131 -31.1974
Spine1  3.33372 -15.8021 28.7214
HEad  -7.60008 53.7565 2.75155
LeftShoulder1  2.81436 -7.32449 -19.5219
LeftArm  -5.08997 48.8413 -35.0666
LeftForeArm  -50.9832 -11.3522 -11.5948
LeftHand  -0.0380426 5.21689 21.5293
RightShoulder  0.346408 -1.96894 15.9231
RightArm  -0.413711 -12.5201 61.434
RightForeArm  -31.5506 33.8881 9.07809
RightHand  -1.33681 -0.0311244 -28.5945
LeftUpLeg  5.06876 4.25117 40.1877
LeftLeg  37.888 -5.98405 -4.66972
LeftFoot  -18.346 -2.39876 -39.3815
LeftToes  -2.75829e-010 5.07641e-011 -5.51782e-011
235
root  12.668 36.3672 1.14274 143.846 -68.1422 -154.666
RightUpLeg  -40.1808 2.29617 -12.8614
RightLeg  44.3444 -1.52997 -1.99799
RightFoot  37.9139 -8.08882 18.2799
RightToes  -5.28226e-011 1.30204e-014 -6.03759e-014
Spine  27.3963 -4.57678 -33.9314
Spine1  1.29942 -17.5673 31.1914
HEad  -4.65608 56.8267 3.39966
LeftShoulder1  2.72554 -6.99609 -19.4711
LeftArm  -5.57644 53.0997 -33.6499
LeftForeArm  -41.3223 -1.62701 -13.4907
LeftHand  0.0108974 5.4764 21.4292
RightShoulder  0.0704637 -3.12318 13.6412
RightArm  9.9925 -12.044 64.5816
RightForeArm  -32.328 30.8595 8.25847
RightHand  -1.15942 -0.551824 -27.4338
LeftUpLeg  9.87163 4.42771 38.6986
LeftLeg  29.2632 0.240617 0.505629
LeftFoot  -11.0285 0.167456 -39.2069
LeftToes  -2.75829e-010 5.07641e-011 -5.51782e-011
236
root  12.7884 37.9339 1.7178 141.449 -67.3341 -149.896
RightUpLeg  -40.0526 -1.95862 -9.85621
RightLeg  30.3791 0.617556 0.232286
RightFoot  31.9301 -9.66477 24.555
RightToes  -5.28226e-011 1.30204e-014 -6.03759e-014
Spine  28.7071 -5.82554 -31.9891
Spine1  -1.82782 -17.4435 31.6204
HEad  -8.97347 52.8607 0.00330205
LeftShoulder1  2.38472 -6.45941 -17.2754
LeftArm  -11.186 52.0846 -35.2762
LeftForeArm  -33.1182 2.9939 -11.0623
LeftHand  -0.172863 4.47347 20.9058
RightShoulder  0.169838 -2.69665 14.2042
RightArm  4.86867 -16.2681 62.354
RightForeArm  -28.4211 33.5789 8.90472
RightHand  -0.866941 -1.53467 -25.8404
LeftUpLeg  10.024 4.81868 37.8886
LeftLeg  22.1793 4.80491 2.5994
LeftFoot  -2.86458 2.86642 -37.2806
LeftToes  -2.75829e-010 5.07641e-011 -5.51782e-011
